<svg width="1155" height="650" viewBox="0 0 1155 650" fill="none" xmlns="http://www.w3.org/2000/svg">
<g clip-path="url(#clip0)">
<path d="M187.05 290.19C211.799 290.19 231.862 270.115 231.862 245.352C231.862 220.589 211.799 200.515 187.05 200.515C162.3 200.515 142.237 220.589 142.237 245.352C142.237 270.115 162.3 290.19 187.05 290.19Z" fill="#BAC5F4"/>
<path d="M111.989 330.543C128.695 330.543 142.237 316.993 142.237 300.278C142.237 283.563 128.695 270.013 111.989 270.013C95.2831 270.013 81.7404 283.563 81.7404 300.278C81.7404 316.993 95.2831 330.543 111.989 330.543Z" fill="#BAC5F4"/>
<path d="M116.47 247.594C125.751 247.594 133.275 240.066 133.275 230.78C133.275 221.494 125.751 213.966 116.47 213.966C107.189 213.966 99.6654 221.494 99.6654 230.78C99.6654 240.066 107.189 247.594 116.47 247.594Z" fill="#BAC5F4"/>
<path d="M1110.18 592.842C1134.93 592.842 1155 572.767 1155 548.004C1155 523.241 1134.93 503.167 1110.18 503.167C1085.44 503.167 1065.37 523.241 1065.37 548.004C1065.37 572.767 1085.44 592.842 1110.18 592.842Z" fill="#BAC5F4"/>
<path d="M33.5671 34.6168C42.8481 34.6168 50.3718 27.0889 50.3718 17.8028C50.3718 8.5167 42.8481 0.988815 33.5671 0.988815C24.2862 0.988815 16.7625 8.5167 16.7625 17.8028C16.7625 27.0889 24.2862 34.6168 33.5671 34.6168Z" fill="#BAC5F4"/>
<path d="M168.389 624.228C124.459 624.228 88.8465 588.596 88.8465 544.641C88.8465 500.687 124.459 465.055 168.389 465.055C212.318 465.055 247.931 500.687 247.931 544.641C247.931 588.596 212.318 624.228 168.389 624.228Z" fill="#E1E6FB"/>
<path d="M839.07 662.339C868.769 662.339 892.845 638.25 892.845 608.535C892.845 578.819 868.769 554.73 839.07 554.73C809.371 554.73 785.295 578.819 785.295 608.535C785.295 638.25 809.371 662.339 839.07 662.339Z" fill="#E1E6FB"/>
<path d="M1045.21 359.688C1061.29 359.688 1074.34 346.639 1074.34 330.543C1074.34 314.447 1061.29 301.399 1045.21 301.399C1029.12 301.399 1016.08 314.447 1016.08 330.543C1016.08 346.639 1029.12 359.688 1045.21 359.688Z" fill="#E1E6FB"/>
<path d="M827.867 126.533C860.041 126.533 886.123 100.437 886.123 68.2448C886.123 36.053 860.041 9.9563 827.867 9.9563C795.693 9.9563 769.611 36.053 769.611 68.2448C769.611 100.437 795.693 126.533 827.867 126.533Z" fill="#E1E6FB"/>
<path d="M278.179 498.683C262.711 498.683 250.171 486.137 250.171 470.66C250.171 455.183 262.711 442.637 278.179 442.637C293.647 442.637 306.187 455.183 306.187 470.66C306.187 486.137 293.647 498.683 278.179 498.683Z" fill="#E1E6FB"/>
<path d="M1106.82 173.613C1122.29 173.613 1134.83 161.066 1134.83 145.589C1134.83 130.112 1122.29 117.566 1106.82 117.566C1091.36 117.566 1078.82 130.112 1078.82 145.589C1078.82 161.066 1091.36 173.613 1106.82 173.613Z" fill="#BAC5F4"/>
<path d="M1062.01 651.13C1078.72 651.13 1092.26 637.58 1092.26 620.865C1092.26 604.15 1078.72 590.6 1062.01 590.6C1045.31 590.6 1031.76 604.15 1031.76 620.865C1031.76 637.58 1045.31 651.13 1062.01 651.13Z" fill="#BAC5F4"/>
<path d="M1129.23 653.372C1138.51 653.372 1146.03 645.844 1146.03 636.558C1146.03 627.272 1138.51 619.744 1129.23 619.744C1119.95 619.744 1112.43 627.272 1112.43 636.558C1112.43 645.844 1119.95 653.372 1129.23 653.372Z" fill="#BAC5F4"/>
</g>
<defs>
<clipPath id="clip0">
<rect width="1155" height="809" fill="white" transform="translate(0 -122)"/>
</clipPath>
</defs>
</svg>
